<svg width="206" height="199" viewBox="0 0 206 199" fill="none" xmlns="http://www.w3.org/2000/svg">
<circle cx="9" cy="2" r="2" fill="#FE8700"/>
<circle cx="9" cy="106" r="2" fill="#FE8700"/>
<circle cx="9" cy="54" r="2" fill="#FE8700"/>
<circle cx="9" cy="158" r="2" fill="#FE8700"/>
<circle cx="9" cy="28" r="2" fill="#FE8700"/>
<circle cx="9" cy="132" r="2" fill="#FE8700"/>
<circle cx="9" cy="80" r="2" fill="#FE8700"/>
<circle cx="9" cy="184" r="2" fill="#FE8700"/>
<circle cx="9" cy="15" r="2" fill="#FE8700"/>
<circle cx="9" cy="119" r="2" fill="#FE8700"/>
<circle cx="9" cy="67" r="2" fill="#FE8700"/>
<circle cx="9" cy="171" r="2" fill="#FE8700"/>
<circle cx="9" cy="41" r="2" fill="#FE8700"/>
<circle cx="9" cy="145" r="2" fill="#FE8700"/>
<circle cx="9" cy="93" r="2" fill="#FE8700"/>
<circle cx="9" cy="197" r="2" fill="#FE8700"/>
<circle cx="22" cy="2" r="2" fill="#FE8700"/>
<circle cx="22" cy="106" r="2" fill="#FE8700"/>
<circle cx="22" cy="54" r="2" fill="#FE8700"/>
<circle cx="22" cy="158" r="2" fill="#FE8700"/>
<circle cx="22" cy="28" r="2" fill="#FE8700"/>
<circle cx="22" cy="132" r="2" fill="#FE8700"/>
<circle cx="22" cy="80" r="2" fill="#FE8700"/>
<circle cx="22" cy="184" r="2" fill="#FE8700"/>
<circle cx="22" cy="15" r="2" fill="#FE8700"/>
<circle cx="22" cy="119" r="2" fill="#FE8700"/>
<circle cx="22" cy="67" r="2" fill="#FE8700"/>
<circle cx="22" cy="171" r="2" fill="#FE8700"/>
<circle cx="22" cy="41" r="2" fill="#FE8700"/>
<circle cx="22" cy="145" r="2" fill="#FE8700"/>
<circle cx="22" cy="93" r="2" fill="#FE8700"/>
<circle cx="22" cy="197" r="2" fill="#FE8700"/>
<circle cx="35" cy="2" r="2" fill="#FE8700"/>
<circle cx="35" cy="106" r="2" fill="#FE8700"/>
<circle cx="35" cy="54" r="2" fill="#FE8700"/>
<circle cx="35" cy="158" r="2" fill="#FE8700"/>
<circle cx="35" cy="28" r="2" fill="#FE8700"/>
<circle cx="35" cy="132" r="2" fill="#FE8700"/>
<circle cx="35" cy="80" r="2" fill="#FE8700"/>
<circle cx="35" cy="184" r="2" fill="#FE8700"/>
<circle cx="87" cy="2" r="2" fill="#FE8700"/>
<circle cx="165" cy="2" r="2" fill="#FE8700"/>
<circle cx="87" cy="106" r="2" fill="#FE8700"/>
<circle cx="165" cy="106" r="2" fill="#FE8700"/>
<circle cx="87" cy="54" r="2" fill="#FE8700"/>
<circle cx="165" cy="54" r="2" fill="#FE8700"/>
<circle cx="87" cy="158" r="2" fill="#FE8700"/>
<circle cx="165" cy="158" r="2" fill="#FE8700"/>
<circle cx="87" cy="28" r="2" fill="#FE8700"/>
<circle cx="165" cy="28" r="2" fill="#FE8700"/>
<circle cx="87" cy="132" r="2" fill="#FE8700"/>
<circle cx="165" cy="132" r="2" fill="#FE8700"/>
<circle cx="87" cy="80" r="2" fill="#FE8700"/>
<circle cx="165" cy="80" r="2" fill="#FE8700"/>
<circle cx="87" cy="184" r="2" fill="#FE8700"/>
<circle cx="165" cy="184" r="2" fill="#FE8700"/>
<circle cx="35" cy="15" r="2" fill="#FE8700"/>
<circle cx="35" cy="119" r="2" fill="#FE8700"/>
<circle cx="35" cy="67" r="2" fill="#FE8700"/>
<circle cx="35" cy="171" r="2" fill="#FE8700"/>
<circle cx="35" cy="41" r="2" fill="#FE8700"/>
<circle cx="35" cy="145" r="2" fill="#FE8700"/>
<circle cx="35" cy="93" r="2" fill="#FE8700"/>
<circle cx="35" cy="197" r="2" fill="#FE8700"/>
<circle cx="87" cy="15" r="2" fill="#FE8700"/>
<circle cx="165" cy="15" r="2" fill="#FE8700"/>
<circle cx="87" cy="119" r="2" fill="#FE8700"/>
<circle cx="165" cy="119" r="2" fill="#FE8700"/>
<circle cx="87" cy="67" r="2" fill="#FE8700"/>
<circle cx="165" cy="67" r="2" fill="#FE8700"/>
<circle cx="87" cy="171" r="2" fill="#FE8700"/>
<circle cx="165" cy="171" r="2" fill="#FE8700"/>
<circle cx="87" cy="41" r="2" fill="#FE8700"/>
<circle cx="165" cy="41" r="2" fill="#FE8700"/>
<circle cx="87" cy="145" r="2" fill="#FE8700"/>
<circle cx="165" cy="145" r="2" fill="#FE8700"/>
<circle cx="87" cy="93" r="2" fill="#FE8700"/>
<circle cx="165" cy="93" r="2" fill="#FE8700"/>
<circle cx="87" cy="197" r="2" fill="#FE8700"/>
<circle cx="165" cy="197" r="2" fill="#FE8700"/>
<circle cx="48" cy="2" r="2" fill="#FE8700"/>
<circle cx="48" cy="106" r="2" fill="#FE8700"/>
<circle cx="48" cy="54" r="2" fill="#FE8700"/>
<circle cx="48" cy="158" r="2" fill="#FE8700"/>
<circle cx="48" cy="28" r="2" fill="#FE8700"/>
<circle cx="48" cy="132" r="2" fill="#FE8700"/>
<circle cx="48" cy="80" r="2" fill="#FE8700"/>
<circle cx="48" cy="184" r="2" fill="#FE8700"/>
<circle cx="100" cy="2" r="2" fill="#FE8700"/>
<circle cx="178" cy="2" r="2" fill="#FE8700"/>
<circle cx="100" cy="106" r="2" fill="#FE8700"/>
<circle cx="178" cy="106" r="2" fill="#FE8700"/>
<circle cx="100" cy="54" r="2" fill="#FE8700"/>
<circle cx="178" cy="54" r="2" fill="#FE8700"/>
<circle cx="100" cy="158" r="2" fill="#FE8700"/>
<circle cx="178" cy="158" r="2" fill="#FE8700"/>
<circle cx="100" cy="28" r="2" fill="#FE8700"/>
<circle cx="178" cy="28" r="2" fill="#FE8700"/>
<circle cx="100" cy="132" r="2" fill="#FE8700"/>
<circle cx="178" cy="132" r="2" fill="#FE8700"/>
<circle cx="100" cy="80" r="2" fill="#FE8700"/>
<circle cx="178" cy="80" r="2" fill="#FE8700"/>
<circle cx="100" cy="184" r="2" fill="#FE8700"/>
<circle cx="178" cy="184" r="2" fill="#FE8700"/>
<circle cx="48" cy="15" r="2" fill="#FE8700"/>
<circle cx="48" cy="119" r="2" fill="#FE8700"/>
<circle cx="48" cy="67" r="2" fill="#FE8700"/>
<circle cx="48" cy="171" r="2" fill="#FE8700"/>
<circle cx="48" cy="41" r="2" fill="#FE8700"/>
<circle cx="48" cy="145" r="2" fill="#FE8700"/>
<circle cx="48" cy="93" r="2" fill="#FE8700"/>
<circle cx="48" cy="197" r="2" fill="#FE8700"/>
<circle cx="100" cy="15" r="2" fill="#FE8700"/>
<circle cx="178" cy="15" r="2" fill="#FE8700"/>
<circle cx="100" cy="119" r="2" fill="#FE8700"/>
<circle cx="178" cy="119" r="2" fill="#FE8700"/>
<circle cx="100" cy="67" r="2" fill="#FE8700"/>
<circle cx="178" cy="67" r="2" fill="#FE8700"/>
<circle cx="100" cy="171" r="2" fill="#FE8700"/>
<circle cx="178" cy="171" r="2" fill="#FE8700"/>
<circle cx="100" cy="41" r="2" fill="#FE8700"/>
<circle cx="178" cy="41" r="2" fill="#FE8700"/>
<circle cx="100" cy="145" r="2" fill="#FE8700"/>
<circle cx="178" cy="145" r="2" fill="#FE8700"/>
<circle cx="100" cy="93" r="2" fill="#FE8700"/>
<circle cx="178" cy="93" r="2" fill="#FE8700"/>
<circle cx="100" cy="197" r="2" fill="#FE8700"/>
<circle cx="178" cy="197" r="2" fill="#FE8700"/>
<circle cx="61" cy="2" r="2" fill="#FE8700"/>
<circle cx="139" cy="2" r="2" fill="#FE8700"/>
<circle cx="61" cy="106" r="2" fill="#FE8700"/>
<circle cx="139" cy="106" r="2" fill="#FE8700"/>
<circle cx="61" cy="54" r="2" fill="#FE8700"/>
<circle cx="139" cy="54" r="2" fill="#FE8700"/>
<circle cx="61" cy="158" r="2" fill="#FE8700"/>
<circle cx="139" cy="158" r="2" fill="#FE8700"/>
<circle cx="61" cy="28" r="2" fill="#FE8700"/>
<circle cx="139" cy="28" r="2" fill="#FE8700"/>
<circle cx="61" cy="132" r="2" fill="#FE8700"/>
<circle cx="139" cy="132" r="2" fill="#FE8700"/>
<circle cx="61" cy="80" r="2" fill="#FE8700"/>
<circle cx="139" cy="80" r="2" fill="#FE8700"/>
<circle cx="61" cy="184" r="2" fill="#FE8700"/>
<circle cx="139" cy="184" r="2" fill="#FE8700"/>
<circle cx="113" cy="2" r="2" fill="#FE8700"/>
<circle cx="191" cy="2" r="2" fill="#FE8700"/>
<circle cx="113" cy="106" r="2" fill="#FE8700"/>
<circle cx="191" cy="106" r="2" fill="#FE8700"/>
<circle cx="113" cy="54" r="2" fill="#FE8700"/>
<circle cx="191" cy="54" r="2" fill="#FE8700"/>
<circle cx="113" cy="158" r="2" fill="#FE8700"/>
<circle cx="191" cy="158" r="2" fill="#FE8700"/>
<circle cx="113" cy="28" r="2" fill="#FE8700"/>
<circle cx="191" cy="28" r="2" fill="#FE8700"/>
<circle cx="113" cy="132" r="2" fill="#FE8700"/>
<circle cx="191" cy="132" r="2" fill="#FE8700"/>
<circle cx="113" cy="80" r="2" fill="#FE8700"/>
<circle cx="191" cy="80" r="2" fill="#FE8700"/>
<circle cx="113" cy="184" r="2" fill="#FE8700"/>
<circle cx="191" cy="184" r="2" fill="#FE8700"/>
<circle cx="61" cy="15" r="2" fill="#FE8700"/>
<circle cx="139" cy="15" r="2" fill="#FE8700"/>
<circle cx="61" cy="119" r="2" fill="#FE8700"/>
<circle cx="139" cy="119" r="2" fill="#FE8700"/>
<circle cx="61" cy="67" r="2" fill="#FE8700"/>
<circle cx="139" cy="67" r="2" fill="#FE8700"/>
<circle cx="61" cy="171" r="2" fill="#FE8700"/>
<circle cx="139" cy="171" r="2" fill="#FE8700"/>
<circle cx="61" cy="41" r="2" fill="#FE8700"/>
<circle cx="139" cy="41" r="2" fill="#FE8700"/>
<circle cx="61" cy="145" r="2" fill="#FE8700"/>
<circle cx="139" cy="145" r="2" fill="#FE8700"/>
<circle cx="61" cy="93" r="2" fill="#FE8700"/>
<circle cx="139" cy="93" r="2" fill="#FE8700"/>
<circle cx="61" cy="197" r="2" fill="#FE8700"/>
<circle cx="139" cy="197" r="2" fill="#FE8700"/>
<circle cx="113" cy="15" r="2" fill="#FE8700"/>
<circle cx="191" cy="15" r="2" fill="#FE8700"/>
<circle cx="113" cy="119" r="2" fill="#FE8700"/>
<circle cx="191" cy="119" r="2" fill="#FE8700"/>
<circle cx="113" cy="67" r="2" fill="#FE8700"/>
<circle cx="191" cy="67" r="2" fill="#FE8700"/>
<circle cx="113" cy="171" r="2" fill="#FE8700"/>
<circle cx="191" cy="171" r="2" fill="#FE8700"/>
<circle cx="113" cy="41" r="2" fill="#FE8700"/>
<circle cx="191" cy="41" r="2" fill="#FE8700"/>
<circle cx="113" cy="145" r="2" fill="#FE8700"/>
<circle cx="191" cy="145" r="2" fill="#FE8700"/>
<circle cx="113" cy="93" r="2" fill="#FE8700"/>
<circle cx="191" cy="93" r="2" fill="#FE8700"/>
<circle cx="113" cy="197" r="2" fill="#FE8700"/>
<circle cx="191" cy="197" r="2" fill="#FE8700"/>
<circle cx="74" cy="2" r="2" fill="#FE8700"/>
<circle cx="152" cy="2" r="2" fill="#FE8700"/>
<circle cx="74" cy="106" r="2" fill="#FE8700"/>
<circle cx="152" cy="106" r="2" fill="#FE8700"/>
<circle cx="74" cy="54" r="2" fill="#FE8700"/>
<circle cx="152" cy="54" r="2" fill="#FE8700"/>
<circle cx="74" cy="158" r="2" fill="#FE8700"/>
<circle cx="152" cy="158" r="2" fill="#FE8700"/>
<circle cx="74" cy="28" r="2" fill="#FE8700"/>
<circle cx="152" cy="28" r="2" fill="#FE8700"/>
<circle cx="74" cy="132" r="2" fill="#FE8700"/>
<circle cx="152" cy="132" r="2" fill="#FE8700"/>
<circle cx="74" cy="80" r="2" fill="#FE8700"/>
<circle cx="152" cy="80" r="2" fill="#FE8700"/>
<circle cx="74" cy="184" r="2" fill="#FE8700"/>
<circle cx="152" cy="184" r="2" fill="#FE8700"/>
<circle cx="126" cy="2" r="2" fill="#FE8700"/>
<circle cx="204" cy="2" r="2" fill="#FE8700"/>
<circle cx="126" cy="106" r="2" fill="#FE8700"/>
<circle cx="204" cy="106" r="2" fill="#FE8700"/>
<circle cx="126" cy="54" r="2" fill="#FE8700"/>
<circle cx="204" cy="54" r="2" fill="#FE8700"/>
<circle cx="126" cy="158" r="2" fill="#FE8700"/>
<circle cx="204" cy="158" r="2" fill="#FE8700"/>
<circle cx="126" cy="28" r="2" fill="#FE8700"/>
<circle cx="204" cy="28" r="2" fill="#FE8700"/>
<circle cx="126" cy="132" r="2" fill="#FE8700"/>
<circle cx="204" cy="132" r="2" fill="#FE8700"/>
<circle cx="126" cy="80" r="2" fill="#FE8700"/>
<circle cx="204" cy="80" r="2" fill="#FE8700"/>
<circle cx="126" cy="184" r="2" fill="#FE8700"/>
<circle cx="204" cy="184" r="2" fill="#FE8700"/>
<circle cx="74" cy="15" r="2" fill="#FE8700"/>
<circle cx="152" cy="15" r="2" fill="#FE8700"/>
<circle cx="74" cy="119" r="2" fill="#FE8700"/>
<circle cx="152" cy="119" r="2" fill="#FE8700"/>
<circle cx="74" cy="67" r="2" fill="#FE8700"/>
<circle cx="152" cy="67" r="2" fill="#FE8700"/>
<circle cx="74" cy="171" r="2" fill="#FE8700"/>
<circle cx="152" cy="171" r="2" fill="#FE8700"/>
<circle cx="74" cy="41" r="2" fill="#FE8700"/>
<circle cx="152" cy="41" r="2" fill="#FE8700"/>
<circle cx="74" cy="145" r="2" fill="#FE8700"/>
<circle cx="152" cy="145" r="2" fill="#FE8700"/>
<circle cx="74" cy="93" r="2" fill="#FE8700"/>
<circle cx="152" cy="93" r="2" fill="#FE8700"/>
<circle cx="74" cy="197" r="2" fill="#FE8700"/>
<circle cx="152" cy="197" r="2" fill="#FE8700"/>
<circle cx="126" cy="15" r="2" fill="#FE8700"/>
<circle cx="204" cy="15" r="2" fill="#FE8700"/>
<circle cx="126" cy="119" r="2" fill="#FE8700"/>
<circle cx="204" cy="119" r="2" fill="#FE8700"/>
<circle cx="126" cy="67" r="2" fill="#FE8700"/>
<circle cx="204" cy="67" r="2" fill="#FE8700"/>
<circle cx="126" cy="171" r="2" fill="#FE8700"/>
<circle cx="204" cy="171" r="2" fill="#FE8700"/>
<circle cx="126" cy="41" r="2" fill="#FE8700"/>
<circle cx="204" cy="41" r="2" fill="#FE8700"/>
<circle cx="126" cy="145" r="2" fill="#FE8700"/>
<circle cx="204" cy="145" r="2" fill="#FE8700"/>
<circle cx="126" cy="93" r="2" fill="#FE8700"/>
<circle cx="204" cy="93" r="2" fill="#FE8700"/>
<circle cx="126" cy="197" r="2" fill="#FE8700"/>
<circle cx="204" cy="197" r="2" fill="#FE8700"/>
</svg>
